Coordinates
version=1
nRows=15
nColumns=23
inDegrees=yes

Units are S.I. units (second, meters, Newtons, ...)
If the header above contains a line with 'inDegrees', this indicates whether rotational values are in degrees (yes) or radians (no).

endheader
time	pelvis_tilt	pelvis_list	pelvis_rotation	pelvis_tx	pelvis_ty	pelvis_tz	hip_flexion_r	hip_adduction_r	hip_rotation_r	knee_angle_r	knee_angle_r_beta	ankle_angle_r	subtalar_angle_r	mtp_angle_r	hip_flexion_l	hip_adduction_l	hip_rotation_l	knee_angle_l	knee_angle_l_beta	ankle_angle_l	subtalar_angle_l	mtp_angle_l
     15.00000000	     -1.46097955	     -1.92193184	      4.96778316	      2.21778036	      1.00017485	      1.03405342	     28.37795535	     -4.56070009	    -11.32550725	     51.23102663	      0.89415009	      3.51414519	     -6.32045883	      0.00000000	    -16.30013823	     -2.87057232	     -8.30695210	     18.03122316	      0.31470421	     -8.83745509	      8.21596756	      0.00000000
     15.00666667	     -1.48320192	     -2.10152588	      4.65116978	      2.22045833	      1.00279775	      1.03461375	     27.65170650	     -4.23634261	    -12.54339099	     47.42150163	      0.82766134	      3.91571511	     -3.95127684	      0.00000000	    -17.05447799	     -3.13558136	     -8.24936419	     18.13442543	      0.31650543	    -10.30933301	      7.46044013	      0.00000000
     15.01333333	     -1.85390730	     -2.04952979	      4.14956165	      2.22270118	      1.00444219	      1.03557020	     27.38495936	     -3.97710480	    -13.39746437	     43.80364851	      0.76451789	      4.15717115	     -1.81741492	      0.00000000	    -17.18674952	     -3.12780493	     -8.34374067	     18.82233780	      0.32851177	    -11.28805406	      6.74014575	      0.00000000
     15.02000000	     -2.16917098	     -1.95514563	      3.62071475	      2.22468579	      1.00560545	      1.03661141	     27.05159631	     -3.70733413	    -14.28531580	     40.30927841	      0.70352963	      4.33908278	      0.44636739	      0.00000000	    -17.18019604	     -3.08712029	     -8.43784953	     19.94027757	      0.34802350	    -11.87675844	      5.86822548	      0.00000000
     15.02666667	     -2.71589665	     -1.69888943	      2.81939254	      2.22618420	      1.00587384	      1.03814558	     27.09443488	     -3.34181216	    -14.59634080	     37.06805363	      0.64695958	      4.38496704	      2.24731388	      0.00000000	    -16.72865572	     -2.83147977	     -8.78554504	     21.53159881	      0.37579729	    -12.13521114	      4.87849003	      0.00000000
     15.03333333	     -2.53060434	     -1.82756917	      2.51523706	      2.22794773	      1.00664749	      1.03896033	     26.09878778	     -2.87540257	    -15.98358557	     33.78416477	      0.58964491	      4.48000767	      4.71303645	      0.00000000	    -16.88566883	     -3.12641993	     -8.72729486	     23.41241705	      0.40862376	    -12.11984744	      3.82906205	      0.00000000
     15.04000000	     -2.83023806	     -1.65726872	      1.73751907	      2.22896181	      1.00610400	      1.04055754	     25.89318692	     -2.32297371	    -16.23378218	     30.95356827	      0.54024168	      4.42712659	      6.22872380	      0.00000000	    -16.32248031	     -3.01123867	     -9.04455650	     25.78668397	      0.45006254	    -11.88971173	      2.60675718	      0.00000000
     15.04666667	     -2.92501806	     -1.67174125	      1.12970821	      2.22995137	      1.00529628	      1.04195049	     25.40688318	     -1.63082082	    -16.66823147	     28.30326704	      0.49398520	      4.29685952	      7.56992256	      0.00000000	    -15.78766851	     -3.17319190	     -9.29586842	     28.53154067	      0.49796933	    -11.48411359	      1.39881098	      0.00000000
     15.05333333	     -2.44257932	     -2.06082651	      0.78685254	      2.23104249	      1.00481765	      1.04297594	     24.12902987	     -0.60792751	    -17.37681582	     25.63678418	      0.44744629	      3.97703527	      8.51448850	      0.00000000	    -15.76091194	     -3.83837997	     -9.50410712	     31.47516153	      0.54934520	    -11.00575575	      0.48998669	      0.00000000
     15.06000000	     -2.22997876	     -2.29482913	      0.25888301	      2.23170506	      1.00335485	      1.04424850	     23.30583925	      0.35533918	    -17.51428640	     23.46725223	      0.40958082	      3.62781955	      8.91725797	      0.00000000	    -15.28212145	     -4.28657907	     -9.72742635	     34.74959589	      0.60649486	    -10.46776797	     -0.71756592	      0.00000000
     15.06666667	     -2.11644852	     -2.40330580	     -0.38266776	      2.23207751	      1.00115237	      1.04560580	     22.74757441	      1.11790430	    -17.60138936	     21.91339531	      0.38246090	      3.45912311	      9.44115952	      0.00000000	    -14.57910005	     -4.54967190	     -9.90110828	     38.23002503	      0.66723981	     -9.87306087	     -2.24225550	      0.00000000
     15.07333333	     -1.57474203	     -2.93735360	     -0.64965324	      2.23259110	      0.99915098	      1.04642464	     21.49325996	      2.32046268	    -17.53654760	     20.17315184	      0.35208792	      2.77877563	      8.68207918	      0.00000000	    -14.21468235	     -5.34227976	     -9.82183877	     41.86841204	      0.73074164	     -9.42542060	     -3.52468570	      0.00000000
     15.08000000	     -1.24051997	     -3.17932517	     -1.14759274	      2.23271621	      0.99620108	      1.04742188	     20.77740865	      3.04602767	    -17.65891659	     19.41994139	      0.33894192	      2.61367656	      8.70428965	      0.00000000	    -13.52429932	     -5.72383710	     -9.75797044	     45.64754623	      0.79669998	     -8.87717169	     -5.15230323	      0.00000000
     15.08666667	     -0.77129202	     -3.60639778	     -1.31774686	      2.23288376	      0.99316041	      1.04787188	     19.75747871	      3.94451747	    -17.53995298	     18.60510106	      0.32472027	      2.10119942	      7.55246095	      0.00000000	    -12.84484529	     -6.28381504	     -9.27848019	     49.50420514	      0.86401137	     -8.48704843	     -6.98692327	      0.00000000
     15.09333333	     -0.29935201	     -3.95791561	     -1.56460339	      2.23274495	      0.98957263	      1.04832470	     18.93509460	      4.60390047	    -17.64341497	     18.52483574	      0.32331938	      2.01699995	      6.88204083	      0.00000000	    -12.07961426	     -6.76375382	     -8.92128718	     53.43974744	      0.93269954	     -8.06990695	     -8.76740173	      0.00000000
